<svg xmlns="http://www.w3.org/2000/svg" fill="none" viewBox="-1.565 -1.565 50 50" stroke-linecap="round" stroke-linejoin="round" stroke="#fff" id="Envelope--Streamline-Mynaui.svg" height="50" width="50"><desc>Envelope Streamline Icon: https://streamlinehq.com</desc><path d="m4.603024583333334 15.064799166666669 13.631358333333335 9.088874166666667c1.88065875 1.2518195833333334 2.820011666666667 1.8787058333333335 3.8355283333333334 2.122820416666667a5.858750000000001 5.858750000000001 0 0 0 2.7301775 0c1.0155166666666668 -0.24411458333333336 1.9548695833333334 -0.8710008333333334 3.833575416666667 -2.122820416666667l13.631358333333335 -9.088874166666667M13.978977500000003 38.081875000000004h18.915950833333333c3.2809000000000004 0 4.92135 0 6.1751225000000005 -0.6386037500000001a5.858750000000001 5.858750000000001 0 0 0 2.5583208333333336 -2.5602737500000003c0.6405566666666668 -1.2537725000000002 0.6405566666666668 -2.8942225 0.6405566666666668 -6.1751225000000005V18.162125000000003c0 -3.2809000000000004 0 -4.92135 -0.6386037500000001 -6.1751225000000005a5.858750000000001 5.858750000000001 0 0 0 -2.5602737500000003 -2.5602737500000003c-1.2537725000000002 -0.6386037500000001 -2.8942225 -0.6386037500000001 -6.1751225000000005 -0.6386037500000001H13.977024583333336c-3.2809000000000004 0 -4.92135 0 -6.1751225000000005 0.6386037500000001a5.858750000000001 5.858750000000001 0 0 0 -2.5583208333333336 2.5602737500000003c-0.6405566666666668 1.2537725000000002 -0.6405566666666668 2.8942225 -0.6405566666666668 6.1751225000000005v10.545750000000002c0 3.2809000000000004 0 4.92135 0.6386037500000001 6.1751225000000005a5.858750000000001 5.858750000000001 0 0 0 2.5602737500000003 2.5602737500000003c1.2537725000000002 0.6386037500000001 2.8942225 0.6386037500000001 6.1751225000000005 0.6386037500000001" stroke-width="3.13"></path></svg>