<svg xmlns="http://www.w3.org/2000/svg" fill="none" viewBox="-1.565 -1.565 50 50" stroke-linecap="round" stroke-linejoin="round" stroke="#fff" id="Brand-Instagram--Streamline-Mynaui.svg" height="50" width="50"><desc></desc><path d="M31.589794125 22.226535166666668C32.51996833333334 28.50516225 26.30481104166667 33.43608154166667 20.402315708333337 31.102541416666668C17.6629595 30.019453833333337 15.709456958333336 27.557216500000003 15.277862375000002 24.643464833333336C14.347688166666668 18.364837750000003 20.562845458333335 13.433918458333334 26.46534079166667 15.767458583333335C29.204697000000003 16.850546166666668 31.15800425 19.312783500000002 31.589794125 22.226535166666668M35.21264983333334 10.479741416666668H36.390453875000006" stroke-width="3.13"></path><path d="M2.235308416666667 17.310653333333338C2.235308416666667 12.034263083333336 2.235308416666667 9.396067958333335 3.2623472916666674 7.379876791666668C4.16557125 5.607019041666668 5.607019041666668 4.16557125 7.379876791666668 3.2623472916666674C9.396067958333335 2.235308416666667 12.034263083333336 2.235308416666667 17.310653333333338 2.235308416666667H29.559346666666666C34.835736916666676 2.235308416666667 37.47393204166667 2.235308416666667 39.49012320833334 3.2623472916666674C41.26298095833334 4.16557125 42.704428750000005 5.607019041666668 43.60765270833333 7.379876791666668C44.634691583333336 9.396067958333335 44.634691583333336 12.034263083333336 44.634691583333336 17.310653333333338V29.559346666666666C44.634691583333336 34.835736916666676 44.634691583333336 37.47393204166667 43.60765270833333 39.49012320833334C42.704428750000005 41.26298095833334 41.26298095833334 42.704428750000005 39.49012320833334 43.60765270833333C37.47393204166667 44.634691583333336 34.835736916666676 44.634691583333336 29.559346666666666 44.634691583333336H17.310653333333338C12.034263083333336 44.634691583333336 9.396067958333335 44.634691583333336 7.379876791666668 43.60765270833333C5.607019041666668 42.704428750000005 4.16557125 41.26298095833334 3.2623472916666674 39.49012320833334C2.235308416666667 37.47393204166667 2.235308416666667 34.835736916666676 2.235308416666667 29.559346666666666Z" stroke-width="3.13"></path></svg>